<svg viewBox="0 0 1230.574 519.774" xmlns="http://www.w3.org/2000/svg" aria-label="Cloudflare"><path d="m784.025 512.011 5.872-20.311c6.998-24.169 4.394-46.511-7.349-62.926-10.801-15.122-28.804-24.022-50.666-25.056l-414.114-5.281c-2.788-.147-5.096-1.403-6.518-3.471-1.44-2.123-1.773-4.856-.886-7.478 1.366-4.08 5.41-7.164 9.62-7.349l417.954-5.299c49.576-2.271 103.252-42.505 122.048-91.564l23.837-62.28c.657-1.696.952-3.493.94-5.294-.007-.984-.078-1.969-.294-2.94-27.086-121.734-135.711-212.762-265.606-212.762-119.685 0-221.312 77.254-257.76 184.623-23.523-17.652-53.62-27.031-85.969-23.801-57.423 5.706-103.565 51.94-109.271 109.363-1.496 14.901-.277 29.284 3.158 42.8-93.799 2.733-169.021 79.581-169.021 174.044 0 8.549.646 16.95 1.846 25.166.591 3.988 3.952 6.98 7.977 6.98l764.527.092c.076 0 .142-.034.218-.036 4.374-.097 8.222-2.991 9.457-7.22z" fill="#f78100"></path><path d="m921.982 225.558c-3.841 0-7.663.111-11.466.295-.628.033-1.224.185-1.796.385-1.985.696-3.566 2.305-4.168 4.397l-16.286 56.242c-6.998 24.169-4.395 46.493 7.349 62.907 10.801 15.14 28.804 24.022 50.665 25.056l88.277 5.299c2.604.129 4.893 1.385 6.297 3.416 1.477 2.142 1.809 4.893.923 7.515-1.385 4.081-5.41 7.164-9.601 7.349l-91.73 5.299c-49.798 2.29-103.473 42.505-122.27 91.564l-6.629 17.319c-1.206 3.134 1.039 6.472 4.354 6.635.084.004.159.031.244.031h315.626c3.766 0 7.127-2.456 8.142-6.075 5.484-19.498 8.402-40.048 8.402-61.301 0-125.002-101.331-226.333-226.333-226.333z" fill="#fbac42"></path></svg>